<svg width="54" height="44" viewBox="0 0 54 44" fill="none" xmlns="http://www.w3.org/2000/svg">
<rect width="53.0783" height="43.7407" rx="8" fill="#5D5FEF"/>
<path d="M21.2069 13.7684C20.1339 14.6691 20.1339 16.1265 21.2268 17.0271L23.6113 18.9922C25.8567 20.8426 25.8567 23.8556 23.6113 25.706L19.2397 22.1034C18.117 21.1782 17.5507 19.9583 17.5507 18.7465C17.5507 17.5348 18.117 16.3148 19.2397 15.3896L21.1771 13.793C21.1871 13.7848 21.197 13.7766 21.2069 13.7684Z" fill="#5D5FEF" stroke="white" stroke-width="2" stroke-miterlimit="10"/>
<path d="M23.1144 18.5819L21.2266 17.0263C20.1337 16.1256 20.1238 14.6764 21.2068 13.7676C22.2798 12.8997 23.9887 12.9161 25.0518 13.7921C25.5883 14.2343 25.8566 14.8156 25.8566 15.3887C25.8566 15.9619 25.5883 16.5432 25.0518 16.9853L24.6047 17.3538" fill="#5D5FEF"/>
<path d="M23.1144 18.5819L21.2266 17.0263C20.1337 16.1256 20.1238 14.6764 21.2068 13.7676C22.2798 12.8997 23.9887 12.9161 25.0518 13.7921C25.5883 14.2343 25.8566 14.8156 25.8566 15.3887C25.8566 15.9619 25.5883 16.5432 25.0518 16.9853L24.6047 17.3538" stroke="white" stroke-width="2" stroke-miterlimit="10"/>
<path d="M32.4834 29.8565C33.5565 28.9559 33.5565 27.4985 32.4635 26.5979L30.079 24.6328C27.8336 22.7824 27.8336 19.7694 30.079 17.919L34.4506 21.5215C35.5734 22.4467 36.1397 23.6667 36.1397 24.8785C36.1397 26.0902 35.5734 27.3102 34.4506 28.2354L32.5132 29.832C32.4934 29.8484 32.4834 29.8565 32.4834 29.8565Z" fill="#5D5FEF" stroke="white" stroke-width="2" stroke-miterlimit="10"/>
<path d="M30.5654 25.0504L32.4532 26.606C33.5461 27.5066 33.556 28.9559 32.473 29.8647C31.4 30.7326 29.6911 30.7162 28.628 29.8401C28.0915 29.398 27.8232 28.8167 27.8232 28.2435C27.8232 27.6704 28.0915 27.0891 28.628 26.6469L29.085 26.2703" fill="#5D5FEF"/>
<path d="M30.5654 25.0504L32.4532 26.606C33.5461 27.5066 33.556 28.9559 32.473 29.8647C31.4 30.7326 29.6911 30.7162 28.628 29.8401C28.0915 29.398 27.8232 28.8167 27.8232 28.2435C27.8232 27.6704 28.0915 27.0891 28.628 26.6469L29.085 26.2703" stroke="white" stroke-width="2" stroke-miterlimit="10"/>
</svg>
